<?xml version="1.0" encoding="UTF-8" standalone="no"?>
<!-- Created with Inkscape (http://www.inkscape.org/) -->

<svg
   xmlns:dc="http://purl.org/dc/elements/1.1/"
   xmlns:cc="http://creativecommons.org/ns#"
   xmlns:rdf="http://www.w3.org/1999/02/22-rdf-syntax-ns#"
   xmlns:svg="http://www.w3.org/2000/svg"
   xmlns="http://www.w3.org/2000/svg"
   xmlns:sodipodi="http://sodipodi.sourceforge.net/DTD/sodipodi-0.dtd"
   xmlns:inkscape="http://www.inkscape.org/namespaces/inkscape"
   width="300"
   height="300"
   id="svg2"
   version="1.1"
   inkscape:version="0.48.4 r9939"
   sodipodi:docname="Novo documento 1">
  <defs
     id="defs4" />
  <sodipodi:namedview
     id="base"
     pagecolor="#ffffff"
     bordercolor="#666666"
     borderopacity="1.0"
     inkscape:pageopacity="0.0"
     inkscape:pageshadow="2"
     inkscape:zoom="2.0266667"
     inkscape:cx="169.73684"
     inkscape:cy="144.4388"
     inkscape:document-units="px"
     inkscape:current-layer="layer1"
     showgrid="false"
     inkscape:window-width="1313"
     inkscape:window-height="744"
     inkscape:window-x="53"
     inkscape:window-y="24"
     inkscape:window-maximized="1" />
  <metadata
     id="metadata7">
    <rdf:RDF>
      <cc:Work
         rdf:about="">
        <dc:format>image/svg+xml</dc:format>
        <dc:type
           rdf:resource="http://purl.org/dc/dcmitype/StillImage" />
        <dc:title></dc:title>
      </cc:Work>
    </rdf:RDF>
  </metadata>
  <g
     inkscape:label="Camada 1"
     inkscape:groupmode="layer"
     id="layer1"
     transform="translate(0,-752.36218)">
    <g
       transform="scale(1.0000028,0.9999972)"
       style="font-size:41.14968109px;font-style:normal;font-weight:normal;line-height:125%;letter-spacing:0px;word-spacing:0px;fill:#ffffff;fill-opacity:1;stroke:none;font-family:Sans"
       id="text2985">
      <path
         d="m 10.863511,1014.8366 c 0.301752,0.055 0.534933,0.2332 0.699544,0.5349 0.10972,1.2071 0.04114,2.0027 -0.205748,2.3867 -1.3e-5,0.028 -0.438942,0.1646 -1.31679,0.4115 -0.52124,0.1372 -0.7544213,0.4664 -0.6995447,0.9876 l 0.1234491,6.1313 c 0.082289,0.2195 0.5075017,0.3292 1.2756396,0.3292 0.02742,-0.082 0.08229,-0.1097 0.164599,-0.082 0.109721,0.082 0.178303,0.1097 0.205749,0.082 l 4.649914,0 c 0.219448,-0.1097 0.32918,-0.3566 0.329197,-0.7407 l -0.0823,-6.049 c -0.10975,-0.3292 -0.46638,-0.5349 -1.069892,-0.6173 -0.603544,-0.1097 -0.960174,-0.3291 -1.069892,-0.6584 l -0.0823,-1.934 c 0.08228,-0.4115 0.301749,-0.6584 0.658395,-0.7407 l 8.517984,0 c 0.466338,0 0.946417,0 1.440239,0 0.576069,0 0.960132,0.2058 1.152191,0.6173 -2.7e-5,0.4664 0.01369,0.9464 0.04115,1.4402 -2.6e-5,0.5761 -0.219491,0.9465 -0.658395,1.111 -0.30179,0.055 -0.61727,0.1235 -0.946442,0.2058 -0.301789,0.055 -0.507537,0.2195 -0.617245,0.4938 -0.02746,1.5637 0.02741,8.6552 0.164598,21.2744 0.109708,0.3566 0.466338,0.5898 1.069892,0.6995 0.630935,0.082 1.014999,0.3018 1.152191,0.6584 -2.7e-5,-0.1371 -2.7e-5,0.3704 0,1.5226 -2.7e-5,0.576 -0.178342,0.9738 -0.534946,1.1933 l -0.822993,0.1234 -9.629026,-0.041 c -0.329213,-0.027 -0.562394,-0.1783 -0.699544,-0.4527 -0.02745,-0.4937 -0.0686,-0.9738 -0.123449,-1.4402 -1.5e-5,-0.5761 0.13715,-1.0287 0.411496,-1.3579 0.08228,-0.055 0.411481,-0.1509 0.987593,-0.2881 0.41148,-0.082 0.699527,-0.2606 0.864143,-0.5349 l -0.04115,-8.9707 c 0.02742,-0.384 -0.04117,-0.8915 -0.205748,-1.5225 l -0.370347,-0.1646 -5.7609555,0 c -0.2469087,0.1372 -0.3703576,0.3704 -0.3703471,0.6996 -1.05e-5,0.2743 -1.05e-5,0.5486 0,0.8229 l 0.082299,9.053 c 0.1371549,0.3292 0.5349343,0.5486 1.1933403,0.6584 0.658383,0.082 1.02873,0.3703 1.111042,0.8641 -1.3e-5,0.4664 -1.3e-5,0.9327 0,1.3991 -1.3e-5,0.5487 -0.178328,0.919 -0.534946,1.111 l -1.193341,0.041 -8.8883308,0 c -0.41149874,0 -0.65839658,-0.1783 -0.74069429,-0.535 -1.57e-6,-0.1645 -0.0274347,-0.5075 -0.0822994,-1.0287 -0.0274346,-0.4664 -0.013718,-0.8093 0.0411497,-1.0287 0.0822977,-0.3292 0.26061286,-0.5761 0.53494585,-0.7407 0.27432892,-0.055 0.56237632,-0.1098 0.86414332,-0.1646 0.3017611,-0.082 0.5075093,-0.2606 0.6172452,-0.535 l 0.04115,-1.9752 c -3.6e-6,-1.1521 -0.068586,-7.5441 -0.2057484,-19.1757 -3.4e-6,-0.4389 -0.2880509,-0.7132 -0.8641433,-0.823 -0.65839678,-0.1097 -1.05617663,-0.288 -1.19334078,-0.535 -0.16459988,-1.1795 -0.13716678,-1.9614 0.0822994,-2.3455 0.27432954,-0.2469 0.67210942,-0.3703 1.19334072,-0.3703 0.5212262,0 1.0150219,-0.014 1.4813886,-0.041 4.3892908,10e-5 7.0091515,0.014 7.8595895,0.041"
         style="font-variant:normal;font-stretch:normal;text-align:center;text-anchor:middle;fill:#ffffff;font-family:Heineken;-inkscape-font-specification:Heineken"
         id="path2998" />
      <path
         d="m 44.144602,1027.9633 c 0.658377,1.5637 1.015007,3.5526 1.069892,5.9667 -1.9e-5,2.0301 -1.9e-5,4.0738 0,6.1313 -1.9e-5,0.1372 0.096,0.3155 0.288047,0.535 0.192013,0.027 0.425194,-0.041 0.699545,-0.2058 0.301744,-0.192 0.534926,-0.288 0.699544,-0.288 0.08228,0 0.178295,0.027 0.288048,0.082 0.603508,0.4938 0.918988,0.9601 0.946443,1.3991 -0.548683,1.2345 -1.646007,2.0849 -3.291975,2.5512 -0.46638,0.1372 -1.138491,0.2332 -2.016334,0.2881 -0.219481,-0.027 -0.534961,-0.096 -0.946443,-0.2058 -0.49381,-0.082 -1.028756,-0.3566 -1.604837,-0.823 -0.438943,-0.4114 -0.877873,-0.8229 -1.31679,-1.2344 -0.219477,0.055 -0.493808,0.2331 -0.822994,0.5349 -0.329208,0.3018 -0.576106,0.4938 -0.740694,0.5761 -1.1522,0.8504 -2.551288,1.2756 -4.197267,1.2756 -1.207063,0 -2.263237,-0.2331 -3.168526,-0.6995 -1.728288,-0.8779 -2.59243,-2.4004 -2.59243,-4.5676 0,-0.3566 0.02743,-0.6996 0.0823,-1.0288 0.329196,-2.03 1.563685,-3.5937 3.703471,-4.691 0.960154,-0.4938 2.96277,-1.1385 6.007853,-1.9341 0.548652,-0.1645 0.891565,-0.3977 1.028742,-0.6995 0.164587,-0.3292 0.246887,-0.6858 0.246898,-1.0699 -1.1e-5,-0.7407 -0.192043,-1.3716 -0.576095,-1.8929 -0.493807,-0.5761 -1.042469,-0.8504 -1.645987,-0.823 -0.905302,0.055 -1.536263,0.4938 -1.892886,1.3168 -0.137173,0.5213 -0.452653,1.2894 -0.946442,2.3044 -0.137172,0.1097 -0.315488,0.1783 -0.534946,0.2057 -0.137172,10e-5 -0.34292,-0.014 -0.617245,-0.041 -0.274337,-0.027 -0.452652,-0.041 -0.534946,-0.041 -0.603533,-0.1645 -1.193345,-0.3154 -1.769436,-0.4526 -0.658398,-0.2469 -1.069894,-0.6584 -1.234491,-1.2345 -0.192034,-1.8106 0.768125,-3.2919 2.880478,-4.4442 1.426516,-0.7681 3.058785,-1.1521 4.896812,-1.1521 1.94774,0 3.607442,0.4389 4.979111,1.3167 1.234475,0.7682 2.112334,1.7832 2.63358,3.0451 m -7.365793,6.7897 c -1.179633,0.3018 -2.057492,0.8642 -2.63358,1.6872 -0.38407,0.5212 -0.576102,1.1247 -0.576095,1.8105 -7e-6,0.439 0.09601,0.8505 0.288048,1.2345 0.466355,0.7682 1.193332,1.0974 2.180933,0.9876 1.124747,-0.1097 1.879157,-0.5212 2.263232,-1.2345 0.466351,-1.0973 0.562367,-2.5787 0.288048,-4.4441 -0.08231,-0.3292 -0.301776,-0.4938 -0.658395,-0.4938 -0.384075,0 -0.768138,0.1509 -1.152191,0.4526"
         style="font-variant:normal;font-stretch:normal;text-align:center;text-anchor:middle;fill:#ffffff;font-family:Heineken;-inkscape-font-specification:Heineken"
         id="path3000" />
      <path
         d="m 58.076983,1024.301 c 0.411486,0.082 0.617234,0.3018 0.617245,0.6584 -1.1e-5,1.2071 0.01371,1.6323 0.04115,1.2756 -0.05488,0.4938 -0.260625,0.823 -0.617246,0.9876 -0.329207,0.055 -0.75442,0.2744 -1.27564,0.6584 -0.164607,0.2195 -0.205757,0.4801 -0.123449,0.7819 0.05486,0.2743 0.123441,0.5349 0.205749,0.7818 l 2.839328,6.9955 c 0.137153,0.2469 0.288035,0.2743 0.452646,0.082 0.384051,-0.9328 0.836697,-2.181 1.35794,-3.7447 0.630947,-1.9751 1.05616,-3.2371 1.27564,-3.7857 0.05485,-0.7133 0.02742,-1.1248 -0.0823,-1.2345 -0.109747,-0.1372 -0.370361,-0.2881 -0.781844,-0.4527 -0.384077,-0.1646 -0.644691,-0.3566 -0.781843,-0.5761 -0.05488,-1.1521 -0.08231,-1.6048 -0.0823,-1.3579 0.02742,-0.5212 0.219452,-0.8641 0.576096,-1.0288 2.002602,-0.055 4.389281,-0.041 7.160044,0.041 0.301743,0.1646 0.466342,0.4938 0.493796,0.9876 -2.1e-5,-0.1097 -0.01374,0.2881 -0.04115,1.1933 -0.137187,0.3292 -0.493817,0.5899 -1.069892,0.7819 -0.576115,0.1646 -0.932745,0.4115 -1.069892,0.7407 l -0.617245,1.3991 -5.431758,14.3612 c -0.219478,0.2469 -0.452659,0.3703 -0.699544,0.3703 l -3.250825,0 c -0.301773,-0.082 -0.562388,-0.384 -0.781844,-0.9052 l -6.583949,-14.8139 c -0.137167,-0.3292 -0.397782,-0.5898 -0.781844,-0.7819 -0.356631,-0.192 -0.699545,-0.3703 -1.028742,-0.5349 -0.219465,-0.2469 -0.315481,-0.6721 -0.288048,-1.2757 0,-0.2468 0,-0.5075 0,-0.7818 0.02743,-0.3292 0.123449,-0.5487 0.288048,-0.6584 0.164599,-0.1371 0.315481,-0.2057 0.452646,-0.2058 2.139781,10e-5 5.349453,0.014 9.629026,0.041"
         style="font-variant:normal;font-stretch:normal;text-align:center;text-anchor:middle;fill:#ffffff;font-family:Heineken;-inkscape-font-specification:Heineken"
         id="path3002" />
      <path
         d="m 87.450137,1029.0744 c 0.740675,1.7557 1.111022,3.0176 1.111042,3.7857 -2e-5,0.4664 -0.548682,0.9191 -1.645987,1.358 -1.316807,0.5212 -3.319423,1.207 -6.007854,2.0575 l -3.538872,0.9464 c -0.192041,0.082 -0.301773,0.2058 -0.329198,0.3703 0.05486,1.0151 0.452638,1.8929 1.193341,2.6336 0.768117,0.7133 1.645976,1.0699 2.633579,1.0699 1.207045,0 2.578699,-0.5761 4.114969,-1.7283 0.301748,-0.2469 0.603512,-0.5075 0.905293,-0.7818 0.32918,-0.3018 0.672093,-0.4115 1.028742,-0.3292 0.768108,0.4115 1.179605,0.9327 1.23449,1.5637 -0.192051,0.9327 -1.097343,1.9614 -2.715879,3.0862 -1.618569,1.1248 -3.552602,1.6871 -5.802105,1.6871 -1.673429,0 -3.182249,-0.3292 -4.526465,-0.9876 -1.728291,-0.8229 -3.086229,-2.0986 -4.073818,-3.8269 -0.905294,-1.5911 -1.385374,-3.3605 -1.440239,-5.3083 -0.05487,-2.0026 0.356629,-3.868 1.23449,-5.5963 0.90529,-1.7557 2.208362,-3.1274 3.90922,-4.115 1.261916,-0.7681 2.729587,-1.1522 4.403016,-1.1522 2.057472,0 3.840623,0.535 5.349458,1.6048 1.344206,0.9328 2.331798,2.1536 2.962777,3.6624 m -8.97063,-1.8518 c -0.960168,0.3567 -1.618562,1.2345 -1.975185,2.6336 -0.384071,1.5637 -0.397787,2.8393 -0.04115,3.8269 0.219457,0.3292 0.466355,0.4664 0.740694,0.4115 1.838009,-0.4115 3.401695,-0.919 4.691063,-1.5225 0.219452,-0.2195 0.315468,-0.5075 0.288048,-0.8642 -0.02745,-1.3442 -0.301777,-2.5101 -0.822993,-3.4977 -0.411509,-0.7681 -1.097337,-1.1522 -2.057484,-1.1522 -0.274342,0 -0.548673,0.055 -0.822994,0.1646"
         style="font-variant:normal;font-stretch:normal;text-align:center;text-anchor:middle;fill:#ffffff;font-family:Heineken;-inkscape-font-specification:Heineken"
         id="path3004" />
      <path
         d="m 120.57692,1027.9633 c 0.65838,1.5637 1.01501,3.5526 1.06989,5.9667 -2e-5,2.0301 -2e-5,4.0738 0,6.1313 -2e-5,0.1372 0.096,0.3155 0.28805,0.535 0.19201,0.027 0.42519,-0.041 0.69954,-0.2058 0.30175,-0.192 0.53493,-0.288 0.69955,-0.288 0.0823,0 0.17829,0.027 0.28805,0.082 0.6035,0.4938 0.91898,0.9601 0.94644,1.3991 -0.54868,1.2345 -1.64601,2.0849 -3.29198,2.5512 -0.46638,0.1372 -1.13849,0.2332 -2.01633,0.2881 -0.21948,-0.027 -0.53496,-0.096 -0.94644,-0.2058 -0.49381,-0.082 -1.02876,-0.3566 -1.60484,-0.823 -0.43894,-0.4114 -0.87787,-0.8229 -1.31679,-1.2344 -0.21948,0.055 -0.49381,0.2331 -0.82299,0.5349 -0.32921,0.3018 -0.57611,0.4938 -0.7407,0.5761 -1.1522,0.8504 -2.55129,1.2756 -4.19727,1.2756 -1.20706,0 -2.26323,-0.2331 -3.16852,-0.6995 -1.72829,-0.8779 -2.59243,-2.4004 -2.59243,-4.5676 0,-0.3566 0.0274,-0.6996 0.0823,-1.0288 0.32919,-2.03 1.56368,-3.5937 3.70347,-4.691 0.96015,-0.4938 2.96277,-1.1385 6.00785,-1.9341 0.54865,-0.1645 0.89157,-0.3977 1.02875,-0.6995 0.16458,-0.3292 0.24688,-0.6858 0.24689,-1.0699 -10e-6,-0.7407 -0.19204,-1.3716 -0.57609,-1.8929 -0.49381,-0.5761 -1.04247,-0.8504 -1.64599,-0.823 -0.9053,0.055 -1.53626,0.4938 -1.89288,1.3168 -0.13718,0.5213 -0.45266,1.2894 -0.94645,2.3044 -0.13717,0.1097 -0.31548,0.1783 -0.53494,0.2057 -0.13718,10e-5 -0.34292,-0.014 -0.61725,-0.041 -0.27434,-0.027 -0.45265,-0.041 -0.53494,-0.041 -0.60354,-0.1645 -1.19335,-0.3154 -1.76944,-0.4526 -0.6584,-0.2469 -1.06989,-0.6584 -1.23449,-1.2345 -0.19203,-1.8106 0.76812,-3.2919 2.88048,-4.4442 1.42651,-0.7681 3.05878,-1.1521 4.89681,-1.1521 1.94774,0 3.60744,0.4389 4.97911,1.3167 1.23447,0.7682 2.11233,1.7832 2.63358,3.0451 m -7.36579,6.7897 c -1.17964,0.3018 -2.0575,0.8642 -2.63358,1.6872 -0.38407,0.5212 -0.57611,1.1247 -0.5761,1.8105 -1e-5,0.439 0.096,0.8505 0.28805,1.2345 0.46635,0.7682 1.19333,1.0974 2.18093,0.9876 1.12475,-0.1097 1.87916,-0.5212 2.26323,-1.2345 0.46636,-1.0973 0.56237,-2.5787 0.28805,-4.4441 -0.0823,-0.3292 -0.30177,-0.4938 -0.65839,-0.4938 -0.38408,0 -0.76814,0.1509 -1.15219,0.4526"
         style="font-variant:normal;font-stretch:normal;text-align:center;text-anchor:middle;fill:#ffffff;font-family:Heineken;-inkscape-font-specification:Heineken"
         id="path3006" />
      <path
         d="m 148.98564,1014.7543 c 0.52122,0.082 1.08359,0.7544 1.68713,2.0163 l 6.6251,14.3612 c 0.0823,0.082 0.15087,0.1098 0.20575,0.082 l 0.1646,-0.2057 -0.0411,-11.2339 c -2e-5,-0.5486 -0.16462,-0.9601 -0.4938,-1.2345 -0.10975,-0.1097 -0.37036,-0.2057 -0.78184,-0.288 -0.38408,-0.082 -0.63098,-0.2332 -0.74069,-0.4527 -0.21949,-0.9601 -0.17834,-1.8379 0.12345,-2.6335 0.19201,-0.2469 0.57607,-0.3703 1.15219,-0.3704 l 6.25475,0.082 c 0.38404,0.1646 0.58978,0.5213 0.61724,1.0699 -2e-5,0.439 -2e-5,0.8916 0,1.358 -2e-5,0.5212 -0.16462,0.8367 -0.49379,0.9464 -0.30179,0.082 -0.61727,0.1646 -0.94645,0.2469 -0.32922,0.055 -0.54868,0.2195 -0.65839,0.4938 l -0.1646,0.7818 -0.0823,23.4965 c -0.10975,0.631 -0.35665,0.9464 -0.74069,0.9464 l -4.81452,-0.082 c -0.35664,-0.027 -0.65841,-0.3429 -0.90529,-0.9464 l -8.14764,-18.2293 c -0.1646,-0.3018 -0.31548,-0.3018 -0.45264,0 l -0.0823,14.0732 c 0.0549,0.4115 0.096,0.6721 0.12345,0.7818 0.0823,0.2744 0.23317,0.4938 0.45264,0.6584 0.10973,0.055 0.45264,0.1646 1.02875,0.3292 0.43892,0.082 0.69953,0.3018 0.78184,0.6584 0.0274,0.4664 0.0549,0.919 0.0823,1.358 -1e-5,0.5212 -0.12346,0.919 -0.37035,1.1933 l -0.37034,0.1646 -6.7074,0 c -0.19204,-0.055 -0.42522,-0.2058 -0.69955,-0.4527 -0.30176,-0.8504 -0.30176,-1.6734 0,-2.4689 0.10973,-0.1921 0.39778,-0.3567 0.86415,-0.4938 0.49379,-0.1646 0.78184,-0.3978 0.86414,-0.6996 l 0.1646,-0.7818 0.0823,-19.8753 c -1e-5,-0.631 -0.23319,-1.0013 -0.69955,-1.1111 -0.21947,-0.055 -0.46636,-0.1097 -0.74069,-0.1646 -0.27433,-0.082 -0.45265,-0.2331 -0.53495,-0.4526 -0.10973,-1.3991 -0.0412,-2.2906 0.20575,-2.6747 0.27433,-0.2195 0.64468,-0.3155 1.11104,-0.2881 l 7.07775,0.041"
         style="font-variant:normal;font-stretch:normal;text-align:center;text-anchor:middle;fill:#ffffff;font-family:Heineken;-inkscape-font-specification:Heineken"
         id="path3008" />
      <path
         d="m 173.40732,1024.3421 -5.51406,0.041 c -0.3292,0 -0.65839,0 -0.98759,0 -0.38406,0.055 -0.61725,0.2469 -0.69954,0.5761 -0.0823,0.8779 -0.0823,1.5225 0,1.934 0.10973,0.2469 0.34291,0.4115 0.69954,0.4938 0.49379,0.1372 0.78184,0.2332 0.86414,0.2881 0.19203,0.1646 0.28805,0.5761 0.28805,1.2345 l 0,11.5219 c -0.13717,0.3292 -0.50751,0.5212 -1.11104,0.5761 -0.5761,0.055 -0.91901,0.2606 -1.02874,0.6172 -0.0549,1.0973 -0.0549,1.838 0,2.2221 0.10973,0.2195 0.30176,0.3566 0.57609,0.4115 1.15219,0 2.6473,0 4.48532,0 2.35924,-0.027 3.86806,-0.041 4.52646,-0.041 l 0.86415,-0.1234 c 0.35662,-0.1646 0.54865,-0.4938 0.57609,-0.9876 -1e-5,-0.4389 -0.0137,-0.8641 -0.0411,-1.2756 -0.0274,-0.4115 -0.16461,-0.6721 -0.41149,-0.7819 -0.0549,-0.027 -0.38408,-0.082 -0.9876,-0.1646 -0.38407,-0.055 -0.61725,-0.2194 -0.69954,-0.4938 l 0,-14.0732 c -1e-5,-0.8504 -0.0686,-1.399 -0.20575,-1.646 -0.27434,-0.3291 -0.67212,-0.4389 -1.19334,-0.3292 m -2.59243,-9.1352 c -0.9876,0 -1.83802,0.3567 -2.55128,1.0699 -0.68583,0.6859 -1.02874,1.5226 -1.02874,2.5101 0,0.9877 0.34291,1.8381 1.02874,2.5513 0.71326,0.6859 1.56368,1.0288 2.55128,1.0288 0.98759,0 1.8243,-0.3429 2.51013,-1.0288 0.71325,-0.7132 1.06988,-1.5636 1.06989,-2.5513 -1e-5,-0.9875 -0.35664,-1.8242 -1.06989,-2.5101 -0.68583,-0.7132 -1.52254,-1.0699 -2.51013,-1.0699"
         style="font-variant:normal;font-stretch:normal;text-align:center;text-anchor:middle;fill:#ffffff;font-family:Heineken;-inkscape-font-specification:Heineken"
         id="path3010" />
      <path
         d="m 195.16844,1027.2638 c 0.43891,0.6858 0.65837,1.5088 0.65839,2.469 -2e-5,0.7132 -0.13718,1.3579 -0.41149,1.934 -0.49382,1.0699 -1.31681,1.6734 -2.46898,1.8106 -1.15221,0.1372 -2.12608,-0.192 -2.92163,-0.9876 -0.46638,-0.4664 -0.64469,-1.1933 -0.53495,-2.1809 0.10972,-1.1797 0.0823,-1.9752 -0.0823,-2.3867 -0.16461,-0.4389 -0.48009,-0.7544 -0.94644,-0.9465 -0.7407,-0.2743 -1.46768,-0.1646 -2.18093,0.3292 -0.79557,0.7682 -1.30308,1.8106 -1.52254,3.1274 -0.10974,0.631 -0.17832,1.838 -0.20575,3.6212 0.32919,2.0849 0.61724,3.4703 0.86414,4.1561 0.57609,1.4814 1.53625,2.4278 2.88048,2.8393 0.27432,0.027 0.54865,0.041 0.823,0.041 0.90528,0 1.86543,-0.2881 2.88047,-0.8642 0.46635,-0.2743 1.28934,-0.8641 2.46898,-1.7694 0.35662,-0.1372 0.74068,0.014 1.15219,0.4526 0.41148,0.4115 0.61723,0.823 0.61725,1.2345 -0.38408,1.2345 -1.65972,2.3867 -3.82692,3.4566 -1.34424,0.6858 -2.82562,1.0287 -4.44417,1.0287 -2.74332,0 -5.03398,-0.8504 -6.87199,-2.5512 -2.11235,-1.9752 -3.16853,-4.6088 -3.16853,-7.9008 0,-1.3991 0.23318,-2.7433 0.69955,-4.0326 0.63096,-1.7832 1.71456,-3.3194 3.25082,-4.6088 1.56368,-1.2893 3.25082,-1.9615 5.06141,-2.0163 3.92293,-0.082 6.66623,1.1659 8.22994,3.7446"
         style="font-variant:normal;font-stretch:normal;text-align:center;text-anchor:middle;fill:#ffffff;font-family:Heineken;-inkscape-font-specification:Heineken"
         id="path3012" />
      <path
         d="m 215.39993,1029.0744 c 0.74067,1.7557 1.11102,3.0176 1.11104,3.7857 -2e-5,0.4664 -0.54868,0.9191 -1.64599,1.358 -1.3168,0.5212 -3.31942,1.207 -6.00785,2.0575 l -3.53887,0.9464 c -0.19204,0.082 -0.30178,0.2058 -0.3292,0.3703 0.0549,1.0151 0.45264,1.8929 1.19334,2.6336 0.76812,0.7133 1.64598,1.0699 2.63358,1.0699 1.20704,0 2.5787,-0.5761 4.11497,-1.7283 0.30175,-0.2469 0.60351,-0.5075 0.90529,-0.7818 0.32918,-0.3018 0.67209,-0.4115 1.02874,-0.3292 0.76811,0.4115 1.17961,0.9327 1.23449,1.5637 -0.19205,0.9327 -1.09734,1.9614 -2.71588,3.0862 -1.61856,1.1248 -3.5526,1.6871 -5.8021,1.6871 -1.67343,0 -3.18225,-0.3292 -4.52647,-0.9876 -1.72829,-0.8229 -3.08623,-2.0986 -4.07381,-3.8269 -0.9053,-1.5911 -1.38538,-3.3605 -1.44024,-5.3083 -0.0549,-2.0026 0.35663,-3.868 1.23449,-5.5963 0.90529,-1.7557 2.20836,-3.1274 3.90922,-4.115 1.26191,-0.7681 2.72958,-1.1522 4.40301,-1.1522 2.05747,0 3.84063,0.535 5.34946,1.6048 1.34421,0.9328 2.3318,2.1536 2.96278,3.6624 m -8.97063,-1.8518 c -0.96017,0.3567 -1.61856,1.2345 -1.97519,2.6336 -0.38407,1.5637 -0.39778,2.8393 -0.0411,3.8269 0.21946,0.3292 0.46636,0.4664 0.7407,0.4115 1.83801,-0.4115 3.40169,-0.919 4.69106,-1.5225 0.21945,-0.2195 0.31547,-0.5075 0.28805,-0.8642 -0.0274,-1.3442 -0.30178,-2.5101 -0.82299,-3.4977 -0.41151,-0.7681 -1.09734,-1.1522 -2.05749,-1.1522 -0.27434,0 -0.54867,0.055 -0.82299,0.1646"
         style="font-variant:normal;font-stretch:normal;text-align:center;text-anchor:middle;fill:#ffffff;font-family:Heineken;-inkscape-font-specification:Heineken"
         id="path3014" />
      <path
         d="m 247.66257,1015.2481 c 1.23447,0.027 2.45524,0.5349 3.66232,1.5225 1.04244,0.8505 1.90658,1.9203 2.59243,3.2097 1.37163,2.6336 2.05746,5.857 2.05748,9.6702 -2e-5,2.3866 -0.27435,4.7185 -0.82299,6.9954 -0.35666,1.4265 -1.01505,2.7433 -1.97519,3.9504 -0.98761,1.2893 -2.15352,2.2083 -3.49772,2.757 -1.31681,0.5487 -2.59244,0.823 -3.82692,0.823 l -12.71525,-0.041 c -0.4115,-0.082 -0.6584,-0.288 -0.74069,-0.6172 -0.0549,-0.3566 -0.0823,-0.7407 -0.0823,-1.1522 -1e-5,-0.4115 0.0274,-0.7956 0.0823,-1.1522 0.13716,-0.2194 0.61724,-0.4526 1.44023,-0.6995 0.63096,-0.1646 0.89158,-0.5624 0.78185,-1.1934 l 0.0823,-20.1222 c -0.0823,-0.4114 -0.45265,-0.672 -1.11104,-0.7818 -0.63097,-0.1371 -0.9876,-0.384 -1.0699,-0.7407 0.0274,-0.1371 0.0137,-0.4526 -0.0411,-0.9464 -0.0274,-0.4115 -0.0137,-0.7133 0.0411,-0.9053 0.0549,-0.3292 0.23318,-0.5487 0.53495,-0.6584 3.4017,-0.1372 7.17375,-0.1372 11.31616,0 l 3.29198,0.082 m -3.25083,3.58 c -1.28937,-0.192 -2.08493,-0.069 -2.38668,0.3703 -0.0274,4.5265 -0.0686,11.3436 -0.12345,20.4514 l 0.12345,0.3292 c 0.41149,0.3018 1.02873,0.3841 1.85174,0.2469 1.6734,-0.027 2.86674,-0.9738 3.58002,-2.8393 0.65838,-1.7557 0.98757,-3.9229 0.98759,-6.5017 -2e-5,-1.015 -0.0549,-2.2083 -0.1646,-3.58 -0.21948,-3.0176 -0.65841,-5.1985 -1.31679,-6.5428 -0.52124,-1.015 -1.37167,-1.6597 -2.55128,-1.934"
         style="font-variant:normal;font-stretch:normal;text-align:center;text-anchor:middle;fill:#ffffff;font-family:Heineken;-inkscape-font-specification:Heineken"
         id="path3016" />
      <path
         d="m 273.76305,1027.9633 c 0.65838,1.5637 1.01501,3.5526 1.0699,5.9667 -2e-5,2.0301 -2e-5,4.0738 0,6.1313 -2e-5,0.1372 0.096,0.3155 0.28804,0.535 0.19202,0.027 0.4252,-0.041 0.69955,-0.2058 0.30174,-0.192 0.53492,-0.288 0.69954,-0.288 0.0823,0 0.1783,0.027 0.28805,0.082 0.60351,0.4938 0.91899,0.9601 0.94644,1.3991 -0.54868,1.2345 -1.646,2.0849 -3.29197,2.5512 -0.46638,0.1372 -1.13849,0.2332 -2.01634,0.2881 -0.21948,-0.027 -0.53496,-0.096 -0.94644,-0.2058 -0.49381,-0.082 -1.02875,-0.3566 -1.60484,-0.823 -0.43894,-0.4114 -0.87787,-0.8229 -1.31679,-1.2344 -0.21947,0.055 -0.4938,0.2331 -0.82299,0.5349 -0.32921,0.3018 -0.57611,0.4938 -0.74069,0.5761 -1.1522,0.8504 -2.55129,1.2756 -4.19727,1.2756 -1.20706,0 -2.26324,-0.2331 -3.16853,-0.6995 -1.72828,-0.8779 -2.59243,-2.4004 -2.59243,-4.5676 0,-0.3566 0.0274,-0.6996 0.0823,-1.0288 0.3292,-2.03 1.56369,-3.5937 3.70347,-4.691 0.96016,-0.4938 2.96277,-1.1385 6.00786,-1.9341 0.54865,-0.1645 0.89156,-0.3977 1.02874,-0.6995 0.16459,-0.3292 0.24689,-0.6858 0.2469,-1.0699 -10e-6,-0.7407 -0.19205,-1.3716 -0.5761,-1.8929 -0.4938,-0.5761 -1.04247,-0.8504 -1.64599,-0.823 -0.9053,0.055 -1.53626,0.4938 -1.89288,1.3168 -0.13717,0.5213 -0.45265,1.2894 -0.94644,2.3044 -0.13718,0.1097 -0.31549,0.1783 -0.53495,0.2057 -0.13717,10e-5 -0.34292,-0.014 -0.61724,-0.041 -0.27434,-0.027 -0.45266,-0.041 -0.53495,-0.041 -0.60353,-0.1645 -1.19334,-0.3154 -1.76944,-0.4526 -0.65839,-0.2469 -1.06989,-0.6584 -1.23449,-1.2345 -0.19203,-1.8106 0.76813,-3.2919 2.88048,-4.4442 1.42652,-0.7681 3.05879,-1.1521 4.89681,-1.1521 1.94774,0 3.60744,0.4389 4.97911,1.3167 1.23448,0.7682 2.11234,1.7832 2.63358,3.0451 m -7.36579,6.7897 c -1.17963,0.3018 -2.05749,0.8642 -2.63358,1.6872 -0.38407,0.5212 -0.5761,1.1247 -0.57609,1.8105 -10e-6,0.439 0.096,0.8505 0.28804,1.2345 0.46636,0.7682 1.19334,1.0974 2.18094,0.9876 1.12474,-0.1097 1.87915,-0.5212 2.26323,-1.2345 0.46635,-1.0973 0.56237,-2.5787 0.28805,-4.4441 -0.0823,-0.3292 -0.30178,-0.4938 -0.6584,-0.4938 -0.38407,0 -0.76814,0.1509 -1.15219,0.4526"
         style="font-variant:normal;font-stretch:normal;text-align:center;text-anchor:middle;fill:#ffffff;font-family:Heineken;-inkscape-font-specification:Heineken"
         id="path3018" />
      <path
         d="m 288.64186,1024.2598 c 0.30175,0.082 0.48007,0.3293 0.53495,0.7407 -2e-5,0.3293 -2e-5,0.6585 0,0.9876 0.0274,0.247 -0.0686,0.5624 -0.28805,0.9465 -10e-6,0 -0.32921,0.1372 -0.98759,0.4115 -0.41151,0.1646 -0.64469,0.4115 -0.69955,0.7407 0.24689,1.1247 0.69954,2.5101 1.35794,4.1561 0.57609,1.3717 1.13846,2.7296 1.68714,4.0738 0.0823,0.1646 0.19202,0.192 0.3292,0.082 l 0.20574,-0.3292 2.59243,-7.6127 c 0.0548,-0.4663 -0.0275,-0.7818 -0.24689,-0.9464 -0.0549,-0.1097 -0.16462,-0.1646 -0.3292,-0.1646 -0.16462,-0.027 -0.27435,-0.082 -0.3292,-0.1646 -0.57611,-0.192 -0.87787,-0.4527 -0.90529,-0.7819 -2e-5,-0.384 -2e-5,-0.7818 0,-1.1933 0.0274,-0.4115 0.1783,-0.727 0.45264,-0.9465 l 0.78185,-0.082 c 1.4265,0.027 3.45655,0.041 6.09015,0.041 0.35661,0 0.60351,0.1509 0.7407,0.4526 0.24687,0.7682 0.21944,1.4815 -0.0823,2.1398 -0.43896,0.1372 -1.04248,0.4664 -1.81059,0.9876 l -0.4938,0.9053 -4.27956,11.0693 c -0.60355,1.5911 -1.20707,3.1822 -1.81059,4.7733 -0.74071,1.8381 -1.49512,3.3743 -2.26323,4.6088 -1.34423,2.1398 -3.19597,3.1137 -5.55521,2.9216 -1.70086,-0.1371 -2.90791,-0.8916 -3.62117,-2.2632 -0.30177,-0.5212 -0.45265,-1.0973 -0.45265,-1.7283 0,-0.631 0.1646,-1.1659 0.4938,-1.6048 0.63096,-0.9053 1.52253,-1.2619 2.67473,-1.0699 0.38406,0.055 0.86414,0.3978 1.44024,1.0287 0.60352,0.631 1.11103,0.9465 1.52254,0.9465 0.24689,0 0.49378,-0.096 0.74069,-0.2881 0.60352,-0.5761 0.90528,-1.3579 0.90529,-2.3455 -10e-6,-0.7407 -0.16461,-1.454 -0.49379,-2.1398 l -6.33705,-14.3612 c -0.13717,-0.3292 -0.48009,-0.6035 -1.02875,-0.823 -0.52123,-0.2195 -0.83671,-0.4938 -0.94644,-0.823 0,-0.082 -0.0137,-0.3703 -0.0412,-0.8642 -0.0549,-0.384 -0.0549,-0.6858 0,-0.9053 0.0549,-0.2743 0.20575,-0.4937 0.45265,-0.6584 l 0.53494,0 9.46443,0.082"
         style="font-variant:normal;font-stretch:normal;text-align:center;text-anchor:middle;fill:#ffffff;font-family:Heineken;-inkscape-font-specification:Heineken"
         id="path3020" />
    </g>
    <g
       transform="scale(0.96936937,1.0315985)"
       style="font-size:51.56220245px;font-style:normal;font-weight:normal;line-height:125%;letter-spacing:0px;word-spacing:0px;fill:#ffffff;fill-opacity:1;stroke:none;font-family:Sans"
       id="text2989">
      <path
         d="m 11.085874,729.41999 c 0.653107,0.10316 1.35779,0.94534 2.11405,2.52655 l 8.301515,17.9952 c 0.1031,0.10314 0.189037,0.13752 0.257811,0.10313 l 0.206248,-0.25781 -0.05156,-14.07648 c -2.4e-5,-0.68747 -0.206272,-1.20309 -0.618746,-1.54687 -0.137523,-0.13747 -0.464083,-0.25778 -0.979682,-0.36094 -0.481269,-0.10309 -0.790642,-0.29215 -0.92812,-0.56718 -0.275019,-1.20308 -0.223457,-2.30308 0.154687,-3.29998 0.240602,-0.30934 0.721848,-0.46402 1.443742,-0.46406 l 7.837454,0.10312 c 0.481216,0.20629 0.739027,0.65316 0.773433,1.34062 -3.1e-5,0.55003 -3.1e-5,1.11722 0,1.70155 -3.1e-5,0.65316 -0.20628,1.04847 -0.618746,1.18593 -0.378154,0.10316 -0.773463,0.20629 -1.185931,0.30938 -0.412527,0.0688 -0.687525,0.27503 -0.824995,0.61874 l -0.206249,0.97969 -0.103124,29.44201 c -0.137528,0.79062 -0.446901,1.18593 -0.92812,1.18593 l -6.032778,-0.10312 c -0.446893,-0.0344 -0.825016,-0.42968 -1.134368,-1.18593 L 8.3530769,742.20741 c -0.2062589,-0.37809 -0.3953202,-0.37809 -0.5671842,0 l -0.1031244,17.63428 c 0.06874,0.51562 0.120302,0.84219 0.1546866,0.97968 0.1031145,0.34375 0.2921757,0.61875 0.5671842,0.82499 0.1374887,0.0688 0.5671733,0.20626 1.2890551,0.4125 0.5499848,0.10313 0.8765448,0.37813 0.9796818,0.825 0.03436,0.58437 0.06874,1.15155 0.103124,1.70155 -1.2e-5,0.65312 -0.154699,1.15156 -0.464059,1.4953 l -0.4640602,0.20625 -8.404639,0 c -0.2406268,-0.0688 -0.53281235,-0.25781 -0.87655745,-0.56718 -0.37812502,-1.06562 -0.37812502,-2.09686 0,-3.09373 0.13749649,-0.24062 0.49843155,-0.44687 1.08280625,-0.61875 0.6187422,-0.20624 0.9796772,-0.49843 1.0828063,-0.87656 l 0.2062488,-0.97968 0.1031244,-24.90454 c -5.1e-6,-0.79059 -0.2921906,-1.25465 -0.8765575,-1.39218 -0.2750023,-0.0687 -0.5843752,-0.13747 -0.9281196,-0.20625 -0.34375094,-0.10309 -0.56718692,-0.29215 -0.67030865,-0.56719 -0.13750164,-1.75308 -0.0515647,-2.87026 0.25781102,-3.35154 0.34374483,-0.27496 0.80780423,-0.39527 1.39217943,-0.36093 l 8.8686992,0.0516"
         style="font-variant:normal;font-stretch:normal;fill:#ffffff;font-family:Heineken;-inkscape-font-specification:Heineken"
         id="path3023" />
      <path
         d="m 56.382464,747.26051 c 0.996844,1.89063 1.495278,3.9703 1.495304,6.23903 -2.6e-5,3.50624 -1.031269,6.47965 -3.093732,8.92026 -2.440632,2.88748 -5.740609,4.33122 -9.899943,4.33122 -1.581253,0 -3.093742,-0.24062 -4.537473,-0.72187 -2.303119,-0.79062 -4.228106,-2.21717 -5.774967,-4.27966 -1.512493,-2.09686 -2.3203,-4.34841 -2.423424,-6.75465 -0.1375,-0.13749 -0.206249,-0.20624 -0.206248,-0.20625 l 0.154686,0 c -0.103125,-2.61247 0.395309,-5.0187 1.495304,-7.21871 1.16874,-2.33746 2.870291,-4.12495 5.104658,-5.36247 1.890605,-1.06559 4.039028,-1.5984 6.445275,-1.59842 3.12809,2e-5 5.774947,0.8422 7.94058,2.52654 1.306219,0.99689 2.406211,2.37189 3.29998,4.12498 m -12.529615,-2.21718 c -1.237504,0.41252 -2.096873,1.32345 -2.57811,2.7328 -0.240633,0.75626 -0.446882,2.09688 -0.618746,4.02185 0.103115,2.30313 0.274989,4.02187 0.515622,5.15622 0.378112,1.85625 1.082795,3.36874 2.11405,4.53748 0.928107,0.79062 1.993725,1.04843 3.196857,0.77343 1.237476,-0.44687 2.028096,-1.20311 2.371861,-2.26874 0.446854,-1.27186 0.67029,-2.7156 0.670309,-4.33122 -1.9e-5,-2.4406 -0.446891,-4.98433 -1.340618,-7.63121 -0.24064,-0.7906 -0.687512,-1.49528 -1.340617,-2.11405 -0.653136,-0.6531 -1.375006,-0.97966 -2.165612,-0.97968 -0.275012,2e-5 -0.55001,0.0344 -0.824996,0.10312"
         style="font-variant:normal;font-stretch:normal;fill:#ffffff;font-family:Heineken;-inkscape-font-specification:Heineken"
         id="path3025" />
      <path
         d="m 69.136053,734.00902 0.360936,0.56719 0,6.08434 c 0.171863,0.41252 0.549985,0.67033 1.134368,0.77343 0.481235,3e-5 0.962482,3e-5 1.443742,0 0.274985,3e-5 0.515608,0.0344 0.721871,0.10313 0.446858,0.27502 0.670294,0.79064 0.670308,1.54686 -1.4e-5,-0.30935 -0.05158,0.29221 -0.154686,1.80468 -0.206264,0.34377 -0.584386,0.53283 -1.134369,0.56718 -0.515635,0.0344 -1.014069,0.0516 -1.495303,0.0516 -0.309386,0.0344 -0.532821,0.0688 -0.670309,0.10313 -0.240635,0.10314 -0.395321,0.25783 -0.46406,0.46406 -0.103135,0.61876 -0.154697,2.68125 -0.154686,6.18746 l 0,8.24996 c 0.103113,0.34375 0.171862,0.55 0.206248,0.61874 0.137488,0.24063 0.309362,0.37813 0.515622,0.4125 0.412486,0.0688 0.876545,-0.15468 1.39218,-0.67031 0.515608,-0.51562 0.910918,-0.77343 1.18593,-0.77343 0.206235,0 0.429671,0.0859 0.670309,0.25781 0.75623,0.85937 1.134353,1.46093 1.134369,1.80468 -1.6e-5,0.20625 -0.05158,0.4125 -0.154687,0.61874 -1.271882,2.23437 -3.282806,3.52342 -6.032778,3.86717 l -0.670308,0.0516 c -0.550006,0 -1.323438,-0.15469 -2.320299,-0.46406 -0.343755,-0.17187 -0.876564,-0.4125 -1.598429,-0.72187 -1.374996,-1.09999 -2.062491,-2.66404 -2.062488,-4.69216 l -0.05156,-13.5093 c -3e-6,-0.89372 -0.06875,-1.51247 -0.206249,-1.85624 -0.137502,-0.13748 -0.429687,-0.27497 -0.876557,-0.4125 -0.4125,-0.17185 -0.653123,-0.41247 -0.721871,-0.72187 -0.171875,-1.20309 -0.08594,-2.1484 0.257811,-2.83592 0.412496,-0.1031 1.048429,-0.29216 1.907801,-0.56718 1.271863,-0.44685 2.285919,-1.35778 3.04217,-2.7328 0.446866,-0.79059 0.9453,-2.07964 1.495304,-3.86716 0.481239,-0.68747 1.357795,-0.79059 2.629672,-0.30938"
         style="font-variant:normal;font-stretch:normal;fill:#ffffff;font-family:Heineken;-inkscape-font-specification:Heineken"
         id="path3027" />
      <path
         d="m 85.710883,730.19342 c 0.343736,0.0344 0.601547,0.25785 0.773433,0.67031 l 0.05156,1.59843 0.05156,10.364 c 0.03436,0.1719 0.1203,0.25783 0.257811,0.25781 2.818719,-1.40934 5.190578,-2.11402 7.115584,-2.11405 1.203098,3e-5 2.320278,0.25784 3.351543,0.77343 2.199963,1.10002 3.299952,3.43751 3.299982,7.01246 l 0,12.42649 c -0.0344,0.41251 0.1031,0.6875 0.4125,0.825 0.24059,0.0344 0.56715,-0.0859 0.97968,-0.36094 0.44684,-0.27499 0.7734,-0.41249 0.97968,-0.41249 0.2406,0 0.48122,0.12031 0.72187,0.36093 0.48122,0.51563 0.72184,0.92813 0.72187,1.23749 -3e-5,0.825 -0.53284,1.61562 -1.59843,2.37187 -0.92814,0.65312 -1.83907,1.06561 -2.73279,1.23749 -0.653149,0.1375 -1.289082,0.20625 -1.907804,0.20625 -2.096884,0 -3.695311,-0.70469 -4.795285,-2.11405 -0.687514,-0.92812 -1.031262,-2.38905 -1.031244,-4.38279 l -0.05156,-11.91087 c -0.137517,-0.6531 -0.464077,-1.15154 -0.979682,-1.4953 -0.343764,-0.17186 -0.721887,-0.25779 -1.134369,-0.25781 -0.75626,2e-5 -1.426568,0.25783 -2.010925,0.77343 -1.065632,0.89376 -1.598441,2.56094 -1.598429,5.00153 l 0.103125,9.43589 c 0.171862,0.17187 0.601546,0.30937 1.289055,0.41249 0.687482,0.10313 1.099979,0.36094 1.237493,0.77344 0.171859,0.96249 0.154672,1.95936 -0.05156,2.9906 -0.206263,0.30938 -0.825008,0.46406 -1.856239,0.46406 l -10.621814,0 c -0.515623,-0.0688 -0.807809,-0.27499 -0.876557,-0.61874 -0.1375,-1.58124 -0.06875,-2.61248 0.206249,-3.09373 0.171872,-0.20625 0.618744,-0.36094 1.340617,-0.46406 0.618743,-0.10312 0.996866,-0.36093 1.134368,-0.77344 l 0,-26.91547 c -0.137502,-0.17184 -0.635937,-0.39527 -1.495303,-0.67031 -0.618748,-0.24059 -0.893747,-0.67027 -0.824996,-1.28905 -10e-7,-0.41246 -10e-7,-0.84215 0,-1.28906 0.03437,-0.51558 0.240622,-0.85933 0.618747,-1.03124 0.687493,4e-5 1.718736,-0.0343 3.093732,-0.10312 l 5.826529,0.10312"
         style="font-variant:normal;font-stretch:normal;fill:#ffffff;font-family:Heineken;-inkscape-font-specification:Heineken"
         id="path3029" />
      <path
         d="m 114.70012,741.43398 -6.90933,0.0516 c -0.4125,3e-5 -0.825,3e-5 -1.2375,0 -0.48124,0.0688 -0.77343,0.3094 -0.87655,0.72187 -0.10313,1.10002 -0.10313,1.90783 0,2.42343 0.1375,0.30939 0.42968,0.51564 0.87655,0.61874 0.61875,0.1719 0.97968,0.29221 1.08281,0.36094 0.24062,0.20627 0.36093,0.72189 0.36094,1.54687 l 0,14.43741 c -0.17188,0.4125 -0.63594,0.65313 -1.39218,0.72187 -0.72188,0.0688 -1.15156,0.32657 -1.28906,0.77344 -0.0687,1.37499 -0.0687,2.30311 0,2.78435 0.1375,0.275 0.37812,0.44688 0.72187,0.51563 1.44374,0 3.31717,0 5.62028,0 2.95623,-0.0344 4.84684,-0.0516 5.67185,-0.0516 l 1.0828,-0.15468 c 0.44686,-0.20625 0.68748,-0.61875 0.72187,-1.23749 -10e-6,-0.55 -0.0172,-1.08281 -0.0516,-1.59843 -0.0344,-0.51562 -0.20626,-0.84218 -0.51562,-0.97969 -0.0688,-0.0344 -0.48126,-0.10312 -1.23749,-0.20624 -0.48126,-0.0687 -0.77345,-0.275 -0.87656,-0.61875 l 0,-17.63427 c -10e-6,-1.0656 -0.0859,-1.75309 -0.25781,-2.06249 -0.34376,-0.41247 -0.8422,-0.54997 -1.49531,-0.4125 m -3.24842,-11.44681 c -1.23749,4e-5 -2.30311,0.44691 -3.19685,1.34062 -0.85938,0.8594 -1.28906,1.90783 -1.28906,3.14529 0,1.23753 0.42968,2.30314 1.28906,3.19686 0.89374,0.8594 1.95936,1.28908 3.19685,1.28905 1.23749,3e-5 2.28592,-0.42965 3.1453,-1.28905 0.89373,-0.89372 1.3406,-1.95933 1.34062,-3.19686 -2e-5,-1.23746 -0.44689,-2.28589 -1.34062,-3.14529 -0.85938,-0.89371 -1.90781,-1.34058 -3.1453,-1.34062"
         style="font-variant:normal;font-stretch:normal;fill:#ffffff;font-family:Heineken;-inkscape-font-specification:Heineken"
         id="path3031" />
      <path
         d="m 144.33952,743.08397 c 1.03122,1.16877 1.56403,2.57813 1.59843,4.2281 -2e-5,3.1625 0.0172,7.88903 0.0516,14.17961 -2e-5,0.34375 0.13748,0.55 0.4125,0.61874 0.20622,-0.0344 0.5156,-0.17187 0.92812,-0.41249 0.44685,-0.275 0.77341,-0.4125 0.97968,-0.4125 0.27497,0 0.5156,0.1375 0.72187,0.4125 0.54997,0.51562 0.77341,0.97968 0.67031,1.39218 -0.34377,1.37499 -1.49533,2.44061 -3.45466,3.19685 -1.61564,0.61875 -3.16251,0.67031 -4.6406,0.15469 -0.79064,-0.1375 -1.54689,-0.53281 -2.26874,-1.18593 -0.72189,-0.6875 -1.18595,-1.42655 -1.39218,-2.21718 l -0.20625,-1.39218 -0.0516,-10.31244 c 0.0344,-0.75623 0.0687,-1.51247 0.10312,-2.26873 -1e-5,-0.9281 -0.25782,-1.59841 -0.77343,-2.01093 -0.51564,-0.41248 -1.13438,-0.56716 -1.85624,-0.46406 -1.61563,0.30939 -2.59531,1.30626 -2.93904,2.99061 -0.0688,0.89376 -0.13751,4.84686 -0.20625,11.85931 0.0344,0.34375 0.27498,0.55 0.72187,0.61874 0.61873,0.0688 0.96248,0.12032 1.03124,0.15469 0.48124,0.1375 0.75623,0.36094 0.825,0.67031 0.0687,1.75311 -2e-5,2.80154 -0.20625,3.14529 l -0.4125,0.25781 c -2.71562,0 -6.75465,0.0172 -12.11712,0.0516 -0.54999,-0.13749 -0.84218,-0.54999 -0.87655,-1.23749 0,-0.54999 0,-1.11718 0,-1.70155 0.0687,-0.51562 0.25781,-0.84218 0.56718,-0.97968 0.0687,-0.0344 0.51562,-0.12031 1.34062,-0.25781 0.54999,-0.10312 0.84218,-0.37812 0.87656,-0.825 l 0,-15.26241 c -0.13751,-0.27498 -0.46407,-0.44685 -0.97969,-0.51562 -0.51562,-0.10311 -0.82499,-0.29217 -0.92812,-0.56719 -0.1375,-1.58122 -0.0859,-2.59527 0.15469,-3.04217 l 0.61875,-0.41249 c 1.40936,-0.0344 4.24528,-0.0344 8.50776,0 0.27499,0.0688 0.63592,0.5672 1.08281,1.4953 0.17186,0.0688 0.51561,-0.0344 1.03124,-0.30937 2.06247,-1.09997 4.10777,-1.64997 6.1359,-1.64999 2.09684,2e-5 3.74683,0.67033 4.94997,2.01092"
         style="font-variant:normal;font-stretch:normal;fill:#ffffff;font-family:Heineken;-inkscape-font-specification:Heineken"
         id="path3033" />
      <path
         d="m 173.93785,737.51525 c 0.48122,1.20315 0.42966,2.18283 -0.15469,2.93905 -0.55002,0.72189 -1.8047,1.23752 -3.76404,1.54686 -0.3094,0.13753 -0.49846,0.34378 -0.56719,0.61875 -2e-5,0.24065 0.1203,0.46408 0.36094,0.67031 0.27498,0.20627 0.53279,0.39533 0.77343,0.56718 2.19997,1.99376 3.29996,4.31406 3.29998,6.9609 -2e-5,0.79064 -0.12033,1.59844 -0.36093,2.42343 -0.41252,1.54687 -1.30627,2.95624 -2.68124,4.2281 -1.34063,1.27187 -2.81875,2.16561 -4.43435,2.68123 -1.95937,0.65313 -4.1078,0.73906 -6.44527,0.25781 -0.34376,0.10313 -0.5672,0.32657 -0.67031,0.67031 -0.0688,0.48125 0.0859,0.87656 0.46406,1.18593 0.37811,0.275 1.15154,0.48125 2.3203,0.61875 2.71559,0 4.41714,0.0172 5.10466,0.0516 1.89059,0.17188 3.47183,0.60156 4.74372,1.28905 1.92496,1.30625 2.88746,3.04217 2.88748,5.20779 -2e-5,0.41249 -0.0344,0.82499 -0.10312,1.23749 -0.65315,3.43747 -3.50625,5.67183 -8.55933,6.70309 -1.27188,0.27498 -2.54375,0.41248 -3.8156,0.41249 -3.78124,-1e-5 -7.06403,-1.08281 -9.84838,-3.24842 -1.13437,-1.13437 -1.70155,-2.16561 -1.70155,-3.09373 0,-0.30938 0.0516,-0.60156 0.15468,-0.87655 0.1375,-0.61876 0.49844,-1.1 1.08281,-1.44375 0.51562,-0.24062 1.01405,-0.36093 1.4953,-0.36093 0.96249,0 2.09686,0.5328 3.40311,1.59843 1.68435,1.40936 2.73279,2.21716 3.14529,2.42342 1.06561,0.51561 2.19998,0.77343 3.40311,0.77343 1.13435,0 2.11403,-0.24063 2.93904,-0.72187 0.61873,-0.51563 0.92811,-0.94531 0.92812,-1.28905 -1e-5,-0.41251 -0.0688,-0.73907 -0.20625,-0.97968 -0.24064,-0.30938 -0.94532,-0.56719 -2.11405,-0.77344 -2.71562,0 -4.67498,-0.1375 -5.87809,-0.4125 -2.06249,-0.48125 -3.64373,-1.4953 -4.74372,-3.04217 -0.58438,-0.79062 -0.87656,-1.70155 -0.87656,-2.73279 0,-0.85937 0.18906,-1.59843 0.56719,-2.21718 0.37812,-0.61874 1.01405,-1.25467 1.9078,-1.9078 0.13749,-0.20624 0.0859,-0.37811 -0.15469,-0.51562 -2.92186,-2.0281 -4.38279,-4.7609 -4.38279,-8.19839 0,-0.58436 0.0516,-1.18591 0.15469,-1.80468 0.30937,-1.82184 1.2203,-3.47183 2.7328,-4.94997 1.54686,-1.51247 3.2656,-2.47496 5.15622,-2.88748 1.8906,-0.44685 4.02184,-0.39529 6.39371,0.15468 0.0687,3e-5 0.22342,-0.17184 0.46406,-0.51562 0.41248,-2.47496 1.39216,-4.00463 2.93905,-4.58903 0.58435,-0.20622 1.18591,-0.30935 1.80467,-0.30938 1.4781,3e-5 2.4234,0.55003 2.83593,1.64999 m -11.65306,7.52808 c -0.79063,0.0688 -1.37501,0.34377 -1.75312,0.825 -0.79063,0.92814 -1.18594,2.16563 -1.18593,3.71248 -1e-5,1.68438 0.41249,3.28281 1.23749,4.79528 0.65311,1.23751 1.54686,1.82188 2.68124,1.75312 0.51561,-0.0344 1.01404,-0.27499 1.4953,-0.72187 0.75623,-0.92811 1.13436,-2.1656 1.13437,-3.71248 -1e-5,-1.13435 -0.18908,-2.32028 -0.56718,-3.55779 -0.89376,-1.99372 -1.90782,-3.02496 -3.04217,-3.09374"
         style="font-variant:normal;font-stretch:normal;fill:#ffffff;font-family:Heineken;-inkscape-font-specification:Heineken"
         id="path3035" />
      <path
         d="m 204.34423,730.19342 c 0.34374,0.0344 0.60155,0.25785 0.77343,0.67031 l 0.0516,1.59843 0.0516,10.364 c 0.0344,0.1719 0.1203,0.25783 0.25781,0.25781 2.81872,-1.40934 5.19058,-2.11402 7.11558,-2.11405 1.2031,3e-5 2.32028,0.25784 3.35154,0.77343 2.19997,1.10002 3.29996,3.43751 3.29999,7.01246 l 0,12.42649 c -0.0344,0.41251 0.10309,0.6875 0.41249,0.825 0.2406,0.0344 0.56716,-0.0859 0.97969,-0.36094 0.44684,-0.27499 0.7734,-0.41249 0.97968,-0.41249 0.24059,0 0.48122,0.12031 0.72187,0.36093 0.48122,0.51563 0.72184,0.92813 0.72187,1.23749 -3e-5,0.825 -0.53284,1.61562 -1.59843,2.37187 -0.92815,0.65312 -1.83908,1.06561 -2.7328,1.23749 -0.65314,0.1375 -1.28908,0.20625 -1.9078,0.20625 -2.09688,0 -3.69531,-0.70469 -4.79528,-2.11405 -0.68752,-0.92812 -1.03126,-2.38905 -1.03125,-4.38279 l -0.0516,-11.91087 c -0.13752,-0.6531 -0.46408,-1.15154 -0.97968,-1.4953 -0.34376,-0.17186 -0.72189,-0.25779 -1.13437,-0.25781 -0.75626,2e-5 -1.42657,0.25783 -2.01092,0.77343 -1.06564,0.89376 -1.59845,2.56094 -1.59843,5.00153 l 0.10312,9.43589 c 0.17186,0.17187 0.60155,0.30937 1.28906,0.41249 0.68748,0.10313 1.09998,0.36094 1.23749,0.77344 0.17186,0.96249 0.15467,1.95936 -0.0516,2.9906 -0.20627,0.30938 -0.82501,0.46406 -1.85624,0.46406 l -10.62182,0 c -0.51562,-0.0688 -0.80781,-0.27499 -0.87655,-0.61874 -0.1375,-1.58124 -0.0687,-2.61248 0.20625,-3.09373 0.17187,-0.20625 0.61874,-0.36094 1.34061,-0.46406 0.61875,-0.10312 0.99687,-0.36093 1.13437,-0.77344 l 0,-26.91547 c -0.1375,-0.17184 -0.63594,-0.39527 -1.4953,-0.67031 -0.61875,-0.24059 -0.89375,-0.67027 -0.825,-1.28905 0,-0.41246 0,-0.84215 0,-1.28906 0.0344,-0.51558 0.24062,-0.85933 0.61875,-1.03124 0.68749,4e-5 1.71873,-0.0343 3.09373,-0.10312 l 5.82653,0.10312"
         style="font-variant:normal;font-stretch:normal;fill:#ffffff;font-family:Heineken;-inkscape-font-specification:Heineken"
         id="path3037" />
      <path
         d="m 246.17246,747.36363 c 0.92809,2.20001 1.39215,3.78125 1.39218,4.74373 -3e-5,0.58438 -0.68752,1.15157 -2.06249,1.70155 -1.65001,0.65313 -4.15937,1.5125 -7.52808,2.57811 l -4.43435,1.18593 c -0.24064,0.10313 -0.37813,0.25782 -0.4125,0.46406 0.0687,1.27187 0.56717,2.37187 1.4953,3.29998 0.96249,0.89375 2.06248,1.34062 3.29999,1.34062 1.51247,0 3.23121,-0.72187 5.15622,-2.16561 0.3781,-0.30937 0.75622,-0.63593 1.13436,-0.97969 0.41248,-0.37811 0.84216,-0.51561 1.28906,-0.41249 0.96247,0.51562 1.47809,1.16875 1.54687,1.95936 -0.24065,1.16875 -1.37502,2.4578 -3.40311,3.86717 -2.02813,1.40936 -4.45155,2.11404 -7.27027,2.11405 -2.09687,-10e-6 -3.98749,-0.4125 -5.67184,-1.2375 -2.16562,-1.03124 -3.86717,-2.62967 -5.10466,-4.79528 -1.13437,-1.99373 -1.73593,-4.21091 -1.80468,-6.65153 -0.0687,-2.50934 0.44687,-4.84683 1.54687,-7.01246 1.13436,-2.19996 2.76716,-3.9187 4.89841,-5.15622 1.58123,-0.96247 3.42028,-1.44371 5.51715,-1.44374 2.5781,3e-5 4.81246,0.67034 6.70309,2.01093 1.68434,1.16876 2.92183,2.69844 3.71248,4.58903 m -11.24056,-2.3203 c -1.20313,0.4469 -2.02813,1.54689 -2.47499,3.29999 -0.48125,1.95938 -0.49844,3.5578 -0.0516,4.79528 0.27499,0.41251 0.58436,0.58438 0.92812,0.51562 2.3031,-0.51561 4.26246,-1.15154 5.87809,-1.9078 0.27498,-0.27498 0.39529,-0.63592 0.36094,-1.08281 -0.0344,-1.68434 -0.37814,-3.14527 -1.03125,-4.38278 -0.51564,-0.96248 -1.375,-1.44372 -2.57811,-1.44374 -0.34376,2e-5 -0.68751,0.0688 -1.03124,0.20624"
         style="font-variant:normal;font-stretch:normal;fill:#ffffff;font-family:Heineken;-inkscape-font-specification:Heineken"
         id="path3039" />
      <path
         d="m 270.62502,743.39334 c 0.61872,0.9969 0.96247,2.16564 1.03124,3.50623 -0.10314,0.55002 -0.44689,0.94533 -1.03124,1.18593 -0.58439,0.20627 -1.13439,0.39533 -1.64999,0.56719 -0.10315,2e-5 -0.58439,0.1547 -1.44374,0.46406 -0.58439,0.17189 -1.06564,0.25783 -1.44374,0.25781 -0.30939,2e-5 -0.60158,-0.0516 -0.87656,-0.15469 -0.24064,-0.48123 -0.48127,-0.97966 -0.72187,-1.4953 -0.34377,-0.54998 -0.79064,-0.84216 -1.34062,-0.87656 -0.61876,-0.0344 -1.22032,0.22346 -1.80468,0.77344 -0.825,1.10001 -1.22031,3.00781 -1.18593,5.7234 l 0.10313,8.30151 c 0.17186,0.20626 0.53279,0.34376 1.0828,0.4125 0.58436,0.0688 0.96248,0.22344 1.13437,0.46406 0.20624,0.20625 0.32655,0.49844 0.36094,0.87656 0.0344,0.24063 0.0515,0.58437 0.0516,1.03124 -0.0344,0.51563 -0.0516,0.85937 -0.0516,1.03125 -0.0688,0.44687 -0.27502,0.70468 -0.61875,0.77343 l -1.95936,0.10312 -10.05463,0 c -0.4125,0 -0.67031,-0.24062 -0.77344,-0.72187 -0.0344,-1.09999 -0.0344,-1.94217 0,-2.52654 0.1375,-0.4125 0.56719,-0.67031 1.28906,-0.77344 0.72187,-0.13749 1.18593,-0.36093 1.39218,-0.67031 l 0,-2.16561 -0.0516,-12.73586 c -1e-5,-0.61873 -0.15469,-0.96248 -0.46406,-1.03125 -0.275,-0.0687 -0.55,-0.12029 -0.825,-0.15468 -0.275,-0.0687 -0.46406,-0.22342 -0.56718,-0.46406 -0.1375,-0.9281 -0.17188,-1.82184 -0.10313,-2.68124 0.10313,-0.34372 0.34375,-0.60153 0.72187,-0.77343 1.89061,-0.0344 4.67497,-0.0515 8.35308,-0.0516 0.27499,-0.0344 0.61874,0.12033 1.03125,0.46406 0.0687,0.27502 0.18904,0.68752 0.36093,1.23749 1.68435,-1.71872 3.47184,-2.57808 5.36247,-2.57811 2.09684,3e-5 3.66089,0.89377 4.69216,2.68123"
         style="font-variant:normal;font-stretch:normal;fill:#ffffff;font-family:Heineken;-inkscape-font-specification:Heineken"
         id="path3041" />
      <path
         d="m 294.4113,747.36363 c 0.9281,2.20001 1.39216,3.78125 1.39218,4.74373 -2e-5,0.58438 -0.68752,1.15157 -2.06249,1.70155 -1.65001,0.65313 -4.15936,1.5125 -7.52808,2.57811 l -4.43435,1.18593 c -0.24063,0.10313 -0.37813,0.25782 -0.41249,0.46406 0.0687,1.27187 0.56717,2.37187 1.4953,3.29998 0.96248,0.89375 2.06247,1.34062 3.29998,1.34062 1.51248,0 3.23121,-0.72187 5.15622,-2.16561 0.3781,-0.30937 0.75623,-0.63593 1.13437,-0.97969 0.41248,-0.37811 0.84216,-0.51561 1.28905,-0.41249 0.96248,0.51562 1.4781,1.16875 1.54687,1.95936 -0.24065,1.16875 -1.37501,2.4578 -3.4031,3.86717 -2.02814,1.40936 -4.45156,2.11404 -7.27027,2.11405 -2.09688,-10e-6 -3.98749,-0.4125 -5.67185,-1.2375 -2.16562,-1.03124 -3.86717,-2.62967 -5.10466,-4.79528 -1.13437,-1.99373 -1.73592,-4.21091 -1.80467,-6.65153 -0.0687,-2.50934 0.44687,-4.84683 1.54686,-7.01246 1.13437,-2.19996 2.76717,-3.9187 4.89841,-5.15622 1.58124,-0.96247 3.42029,-1.44371 5.51716,-1.44374 2.57809,3e-5 4.81245,0.67034 6.70309,2.01093 1.68434,1.16876 2.92183,2.69844 3.71247,4.58903 m -11.24056,-2.3203 c -1.20313,0.4469 -2.02812,1.54689 -2.47498,3.29999 -0.48126,1.95938 -0.49845,3.5578 -0.0516,4.79528 0.27498,0.41251 0.58436,0.58438 0.92812,0.51562 2.30309,-0.51561 4.26246,-1.15154 5.87809,-1.9078 0.27498,-0.27498 0.39529,-0.63592 0.36093,-1.08281 -0.0344,-1.68434 -0.37814,-3.14527 -1.03124,-4.38278 -0.51564,-0.96248 -1.37501,-1.44372 -2.57811,-1.44374 -0.34376,2e-5 -0.68751,0.0688 -1.03125,0.20624"
         style="font-variant:normal;font-stretch:normal;fill:#ffffff;font-family:Heineken;-inkscape-font-specification:Heineken"
         id="path3043" />
      <path
         d="m 304.89054,758.86201 c -1.1,0 -2.04531,0.39531 -2.83592,1.18593 -0.79063,0.75625 -1.18594,1.70155 -1.18593,2.83592 -1e-5,1.09999 0.3953,2.0453 1.18593,2.83592 0.79061,0.79062 1.73592,1.18593 2.83592,1.18593 1.13436,0 2.07966,-0.39531 2.83592,-1.18593 0.79061,-0.79062 1.18592,-1.73593 1.18593,-2.83592 -1e-5,-1.13437 -0.39532,-2.07967 -1.18593,-2.83592 -0.75626,-0.79062 -1.70156,-1.18593 -2.83592,-1.18593 m 0.56718,-28.87484 c 0.85936,0.10316 1.64998,0.4641 2.37186,1.08281 0.72186,0.5844 1.20311,1.30627 1.44375,2.16561 0.13748,0.61878 0.20623,1.28909 0.20625,2.01093 -2e-5,0.68752 -0.13752,1.9422 -0.4125,3.76404 l -2.78436,17.06709 c -0.0688,0.4125 -0.55001,0.61875 -1.44374,0.61874 -0.92813,1e-5 -1.42656,-0.20624 -1.49531,-0.61874 l -3.09373,-21.03738 c -0.0344,-2.16558 0.77343,-3.66088 2.42342,-4.48591 0.72187,-0.51559 1.64999,-0.70465 2.78436,-0.56719"
         style="font-variant:normal;font-stretch:normal;fill:#ffffff;font-family:Heineken;-inkscape-font-specification:Heineken"
         id="path3045" />
    </g>
    <g
       transform="matrix(0.29575887,0.95526263,-0.95526263,0.29575887,0,0)"
       style="font-size:223.89813232px;font-style:normal;font-weight:normal;line-height:125%;letter-spacing:0px;word-spacing:0px;fill:#ffffff;fill-opacity:1;stroke:none;font-family:Sans"
       id="text2993">
      <path
         d="m 858.17747,139.13647 c 7.91094,-0.0276 14.03208,0.32424 18.36344,1.05539 4.48045,0.73075 7.24497,1.6167 8.29356,2.65784 1.19767,1.04074 1.79942,2.38204 1.80524,4.02389 0.007,1.94049 -1.03218,3.66068 -3.11658,5.16057 -2.08458,1.49999 -4.99106,2.70426 -8.71947,3.61283 -3.72908,0.75939 -7.30908,1.44359 -10.74001,2.05259 -3.28232,0.4593 -7.08752,0.77111 -11.41561,0.93544 -4.3282,0.16442 -7.31297,0.32411 -8.9543,0.47906 -1.4927,0.005 -3.13461,0.011 -4.92573,0.0172 -9.4037,0.0329 -15.67411,-0.3184 -18.81124,-1.05383 -2.98844,-0.88512 -4.4889,-3.11887 -4.50138,-6.70127 -0.0125,-3.58229 1.76979,-6.12604 5.34695,-7.63125 7.3035,-3.01076 19.76187,-4.54691 37.37513,-4.60845 m 6.15734,-32.03913 c 5.22418,-0.0181 8.95762,0.49126 11.20031,1.5282 2.24253,1.03713 3.36905,3.04829 3.37955,6.03349 0.0114,3.2839 -1.47266,5.75198 -4.45214,7.40423 -3.27764,1.80271 -10.36249,3.3201 -21.25456,4.55218 -10.89271,1.08296 -19.77212,1.63639 -26.63825,1.66028 -3.13458,0.011 -5.37485,-0.35433 -6.72081,-1.09603 -1.34653,-0.89082 -2.39737,-2.60372 -3.15253,-5.13869 -0.75937,-3.72892 -1.1393,-5.66805 -1.1398,-5.8174 -0.007,-2.08962 1.03284,-3.43665 3.12048,-4.04109 2.08708,-0.75352 6.41288,-1.58959 12.97742,-2.50819 2.23789,-0.30626 4.02828,-0.53641 5.37118,-0.69045 12.83252,-1.23883 21.93556,-1.86768 27.30915,-1.88653"
         style="font-variant:normal;font-weight:bold;font-stretch:normal;letter-spacing:-25.41023827px;fill:#ffffff;font-family:Purisa;-inkscape-font-specification:Purisa Bold"
         id="path3048" />
      <path
         d="m 934.77301,10.84209 c 7.01542,1.9e-4 15.37428,5.37374 25.0766,16.120665 9.85143,10.747274 16.49373,21.94217 19.92693,33.58472 5.07492,15.82226 7.61243,37.540357 7.61254,65.154355 -1.1e-4,17.01632 -1.19423,30.37556 -3.58237,40.07777 -2.68688,10.59787 -5.89608,20.07621 -9.62762,28.43506 -3.58246,8.35886 -7.16483,15.59823 -10.74711,21.71812 -3.58245,6.26913 -6.04533,11.19488 -7.38864,14.77728 -2.68685,7.31396 -7.23944,10.97096 -13.65779,10.971 -2.53757,-4e-5 -5.29897,-0.5971 -8.28423,-1.79118 -2.98535,-1.0449 -4.47801,-2.76145 -4.47796,-5.14966 -5e-5,-4.17946 4.40328,-14.77729 13.20999,-31.79353 4.17937,-7.91106 7.31394,-14.18021 9.40372,-18.80745 2.08965,-4.77647 4.32862,-12.98606 6.71694,-24.62879 2.53744,-11.64265 3.80619,-24.3302 3.80627,-38.06268 -8e-5,-11.79188 -0.9703,-22.762877 -2.91067,-32.913028 -1.79126,-10.299191 -3.95561,-18.583414 -6.49305,-24.852693 -2.38831,-6.269004 -5.07509,-11.866452 -8.06033,-16.79236 -2.98537,-5.074865 -5.37361,-8.507966 -7.16474,-10.299314 -1.64197,-1.791019 -2.91073,-3.059773 -3.80627,-3.806268 -2.08977,-1.044689 -3.88095,-2.985137 -5.37356,-5.821352 -1.49269,-2.835866 -2.23902,-5.671906 -2.23898,-8.508129 -4e-5,-2.238796 0.74629,-4.029979 2.23898,-5.373555 1.49261,-1.492464 3.43306,-2.238791 5.82135,-2.238981"
         style="font-variant:normal;font-weight:bold;font-stretch:normal;letter-spacing:-25.41023827px;fill:#ffffff;font-family:Purisa;-inkscape-font-specification:Purisa Bold"
         id="path3050" />
    </g>
  </g>
</svg>
